<svg xmlns="http://www.w3.org/2000/svg" width="24" height="24" viewBox="0 0 24 24">
  <path fill="#1C1C1E" d="M12 8.25a3.75 3.75 0 1 0 0 7.5 3.75 3.75 0 0 0 0-7.5zM10 12a2 2 0 1 1 4 0 2 2 0 0 1-4 0z"/>
  <path fill="#1C1C1E" d="M11.1 2.8c.2-.7 1.2-1 1.8-.4l.3.3.9 1.6c.4.1.8.3 1.2.5l1.7-.5.4-.1c.7-.1 1.3.5 1.2 1.2l-.1.4-.5 1.7c.2.4.4.8.5 1.2l1.6.9.3.3c.6.6.3 1.6-.4 1.8l-.4.1-1.7.5c0 .4-.1.9-.3 1.3l.7 1.6.1.4c.2.7-.3 1.4-1 1.4h-.4l-1.7-.4c-.4.2-.8.4-1.2.5l-.5 1.7-.1.4c-.2.7-1.1 1-1.7.5l-.3-.3-.9-1.6c-.4-.1-.8-.3-1.2-.5l-1.7.5-.4.1c-.7.1-1.3-.5-1.2-1.2l.1-.4.5-1.7c-.2-.4-.4-.8-.5-1.2l-1.6-.9-.3-.3c-.6-.6-.3-1.6.4-1.8l.4-.1 1.7-.5c0-.4.1-.9.3-1.3l-.7-1.6-.1-.4c-.2-.7.3-1.4 1-1.4h.4l1.7.4c.4-.2.8-.4 1.2-.5l.5-1.7.1-.4zM12.1 5.1l-.4 1.4-.4.1c-.6.2-1.1.5-1.6.9l-.3.3-1.3-.3-.4.1.5 1.2-.1.4c-.1.6-.1 1.2 0 1.8l.1.4-.5 1.2.4.1 1.3-.3.3.3c.5.4 1 .7 1.6.9l.4.1.4 1.4h.4l.4-1.4.4-.1c.6-.2 1.1-.5 1.6-.9l.3-.3 1.3.3.4-.1-.5-1.2.1-.4c.1-.6.1-1.2 0-1.8l-.1-.4.5-1.2-.4-.1-1.3.3-.3-.3c-.5-.4-1-.7-1.6-.9l-.4-.1-.4-1.4h-.4z"/>
</svg>
